<?xml version="1.0" standalone="no"?>
<!DOCTYPE svg PUBLIC "-//W3C//DTD SVG 20010904//EN"
 "http://www.w3.org/TR/2001/REC-SVG-20010904/DTD/svg10.dtd">
<svg version="1.0" xmlns="http://www.w3.org/2000/svg"
 width="1310.000000pt" height="750.000000pt" viewBox="0 0 1310.000000 750.000000"
 preserveAspectRatio="xMidYMid meet">
<metadata>
Created by potrace 1.16, written by Peter Selinger 2001-2019
</metadata>
<g transform="translate(0.000000,750.000000) scale(0.100000,-0.100000)"
fill="#000000" stroke="none">
<path d="M755 7415 c-281 -61 -525 -267 -626 -530 -63 -164 -59 57 -57 -3087
l3 -2873 34 -97 c94 -274 285 -465 559 -559 l97 -34 5705 0 5705 0 97 34 c274
94 465 285 559 559 l34 97 0 2905 0 2905 -34 97 c-94 274 -285 465 -559 559
l-97 34 -5680 2 c-4654 1 -5691 -1 -5740 -12z m5994 -1831 c709 -104 1292
-575 1505 -1214 68 -206 81 -288 81 -545 0 -257 -13 -339 -81 -545 -213 -639
-796 -1110 -1505 -1214 -140 -21 -418 -21 -558 0 -709 104 -1292 575 -1505
1214 -68 206 -81 288 -81 545 0 257 13 339 81 545 211 635 791 1106 1494 1213
132 21 434 21 569 1z"/>
<path d="M5960 4671 c0 -9 -436 -2251 -445 -2288 l-5 -23 294 0 294 0 5 23 c3
12 42 209 86 437 45 228 86 439 92 468 l10 52 477 0 478 0 42 218 c24 119 43
220 42 225 0 4 -214 7 -476 7 l-476 0 6 28 c13 58 76 394 76 403 0 5 213 9
509 9 l509 0 41 213 c23 116 41 218 41 225 0 9 -167 12 -800 12 -440 0 -800
-4 -800 -9z"/>
</g>
</svg>
